<?xml version="1.0" encoding="UTF-8" ?>
<!DOCTYPE svg PUBLIC "-//W3C//DTD SVG 1.1//EN" "http://www.w3.org/Graphics/SVG/1.1/DTD/svg11.dtd">
<svg width="1350pt" height="650pt" viewBox="0 0 1350 650" version="1.1" xmlns="http://www.w3.org/2000/svg">
<g id="#ffffffff">
</g>
<g id="#36384dff">
<path fill="#36384d" opacity="1.00" d=" M 1195.47 277.69 C 1214.04 275.83 1233.62 279.22 1249.30 289.73 C 1265.09 300.19 1275.80 317.15 1280.42 335.35 C 1284.75 352.51 1284.72 370.80 1280.40 387.96 C 1275.88 405.59 1265.76 422.20 1250.54 432.52 C 1237.01 441.88 1220.39 446.09 1204.04 445.82 C 1185.51 445.82 1166.78 439.55 1152.78 427.25 C 1139.40 415.38 1131.24 398.46 1128.10 381.02 C 1123.70 355.75 1127.48 328.00 1142.86 306.93 C 1155.00 290.04 1174.91 279.59 1195.47 277.69 M 1191.53 288.66 C 1185.08 289.88 1178.75 291.90 1172.93 294.94 C 1160.77 301.35 1151.24 312.23 1145.71 324.74 C 1138.85 339.60 1137.93 356.42 1139.17 372.51 C 1140.64 391.82 1149.36 411.13 1165.01 423.01 C 1181.35 435.48 1203.62 437.72 1223.22 433.25 C 1240.27 429.43 1254.95 417.30 1262.50 401.62 C 1270.87 385.56 1272.14 366.86 1270.49 349.11 C 1268.63 330.17 1260.04 311.10 1244.46 299.59 C 1229.47 288.53 1209.61 285.47 1191.53 288.66 Z" />
<path fill="#36384d" opacity="1.00" d=" M 79.16 298.26 C 85.62 287.66 96.93 280.60 109.07 278.52 C 127.55 275.33 146.44 279.81 163.47 286.99 C 163.47 298.26 163.48 309.52 163.46 320.79 C 160.99 320.72 158.45 321.04 156.03 320.46 C 153.86 319.68 153.12 317.16 153.05 315.07 C 152.67 307.72 152.18 300.37 151.88 293.02 C 138.37 287.57 123.11 285.61 108.80 288.69 C 93.92 291.74 82.81 306.78 84.44 321.91 C 84.96 331.28 91.30 339.34 99.37 343.68 C 115.72 352.82 135.27 354.68 151.03 365.09 C 159.06 370.19 165.08 378.60 166.59 388.06 C 168.14 398.05 166.70 408.45 162.70 417.72 C 157.37 429.35 146.92 438.32 134.92 442.55 C 126.00 445.78 116.35 446.17 106.97 445.58 C 94.28 444.81 81.76 441.77 70.06 436.83 C 70.05 424.54 70.05 412.26 70.06 399.97 C 73.59 400.12 79.21 398.78 80.39 403.41 C 81.49 412.10 81.28 420.91 81.95 429.65 C 93.56 434.81 106.49 436.23 119.08 435.66 C 127.68 435.27 136.38 432.53 143.01 426.91 C 150.13 421.04 154.61 412.30 155.60 403.16 C 156.62 394.93 155.68 385.64 149.69 379.37 C 143.14 372.52 134.20 368.47 125.23 365.82 C 115.15 362.43 104.83 359.56 95.24 354.89 C 85.69 350.03 76.97 341.85 74.54 331.07 C 72.01 320.10 73.10 307.93 79.16 298.26 Z" />
<path fill="#36384d" opacity="1.00" d=" M 313.87 279.01 C 317.84 279.01 321.82 279.01 325.80 279.01 C 346.77 330.45 367.74 381.88 388.72 433.31 C 391.96 433.69 395.30 433.59 398.45 434.48 C 401.97 436.24 400.47 440.85 400.80 443.99 C 387.36 444.01 373.93 444.00 360.49 444.00 C 360.78 440.89 359.34 436.32 362.90 434.66 C 367.28 433.20 372.00 433.66 376.54 433.35 C 370.77 418.87 364.87 404.44 359.12 389.96 C 332.83 389.99 306.55 389.91 280.27 390.00 C 274.62 404.51 268.54 418.84 262.95 433.37 C 267.44 433.63 272.08 433.25 276.42 434.61 C 280.08 436.20 278.66 440.87 278.93 444.00 C 265.58 444.00 252.23 444.00 238.87 444.00 C 239.19 440.93 237.76 436.65 240.86 434.66 C 243.95 433.48 247.38 433.75 250.63 433.35 C 271.80 381.95 292.76 330.45 313.87 279.01 M 319.61 291.34 C 318.58 294.90 317.49 298.45 316.11 301.88 C 305.42 328.28 294.73 354.67 284.06 381.07 C 307.90 381.05 331.74 381.11 355.58 381.04 C 347.93 362.13 340.24 343.24 332.57 324.35 C 328.23 313.35 323.39 302.55 319.61 291.34 Z" />
<path fill="#36384d" opacity="1.00" d=" M 475.06 279.25 C 492.37 279.25 509.68 279.25 526.99 279.25 C 542.05 279.10 557.88 279.43 571.58 286.47 C 580.81 291.05 587.59 299.96 589.91 309.96 C 592.53 321.26 591.73 333.72 586.01 343.98 C 577.73 358.56 561.14 366.57 544.87 368.00 C 546.71 369.52 548.53 371.10 550.00 373.00 C 566.36 393.65 582.74 414.27 599.11 434.91 C 602.62 435.24 606.21 434.82 609.70 435.45 C 613.41 436.53 612.22 441.10 612.42 444.00 C 606.61 443.91 600.78 444.17 594.98 443.89 C 592.63 443.81 591.01 441.95 589.67 440.26 C 572.47 418.50 555.23 396.78 538.02 375.04 C 535.97 372.55 533.57 369.70 530.05 369.67 C 522.24 369.23 514.41 369.58 506.60 369.48 C 506.59 391.19 506.62 412.91 506.58 434.62 C 512.25 435.05 518.02 434.63 523.63 435.55 C 527.17 436.76 525.97 441.14 526.19 444.00 C 509.07 444.00 491.96 444.00 474.85 444.00 C 474.95 441.04 473.93 436.28 477.84 435.42 C 483.41 434.78 489.05 434.94 494.65 434.65 C 494.65 385.90 494.65 337.14 494.65 288.39 C 489.10 288.09 483.52 288.22 478.00 287.63 C 474.15 286.77 475.17 282.14 475.06 279.25 M 506.60 288.59 C 506.59 312.58 506.60 336.58 506.59 360.58 C 516.29 360.57 525.99 360.67 535.69 360.52 C 547.77 360.07 560.60 357.19 569.49 348.44 C 577.19 341.62 580.30 330.95 579.68 320.92 C 579.41 312.49 576.45 303.67 569.67 298.28 C 560.80 291.18 549.09 289.02 538.01 288.66 C 527.54 288.49 517.07 288.62 506.60 288.59 Z" />
<path fill="#36384d" opacity="1.00" d=" M 685.85 279.01 C 702.96 279.01 720.07 279.01 737.18 279.01 C 736.95 281.86 738.19 286.27 734.67 287.51 C 729.03 288.35 723.26 288.01 717.58 288.41 C 717.61 337.15 717.59 385.90 717.59 434.64 C 723.26 435.00 729.01 434.67 734.63 435.51 C 738.19 436.71 736.95 441.14 737.19 444.00 C 720.07 444.00 702.96 444.00 685.85 444.00 C 686.05 441.14 684.85 436.75 688.40 435.55 C 694.08 434.65 699.91 435.01 705.65 434.65 C 705.65 385.90 705.65 337.14 705.65 288.39 C 699.90 288.01 694.06 288.37 688.37 287.47 C 684.84 286.24 686.06 281.85 685.85 279.01 Z" />
<path fill="#36384d" opacity="1.00" d=" M 813.09 279.25 C 830.23 279.30 847.37 279.14 864.50 279.32 C 864.27 282.13 865.30 286.57 861.66 287.55 C 856.09 288.34 850.41 287.94 844.81 288.46 C 844.91 336.90 844.81 385.33 844.86 433.76 C 867.53 433.76 890.20 433.76 912.88 433.76 C 913.49 427.83 913.47 421.76 914.87 415.95 C 916.57 412.00 921.59 413.58 924.95 413.28 C 924.97 423.52 924.95 433.76 924.96 444.00 C 887.67 444.00 850.38 444.00 813.10 444.00 C 813.22 441.05 812.14 436.36 816.02 435.43 C 821.61 434.76 827.28 434.95 832.90 434.66 C 832.91 385.90 832.91 337.14 832.90 288.38 C 827.90 288.20 822.90 288.07 817.90 287.85 C 816.00 287.87 813.75 287.05 813.27 285.01 C 812.99 283.10 813.10 281.17 813.09 279.25 Z" />
<path fill="#36384d" opacity="1.00" d=" M 1002.09 279.02 C 1019.21 279.01 1036.32 279.01 1053.44 279.02 C 1053.23 281.91 1054.43 286.51 1050.71 287.58 C 1045.14 288.27 1039.49 288.08 1033.90 288.36 C 1033.81 337.13 1033.81 385.90 1033.90 434.67 C 1039.47 434.93 1045.09 434.76 1050.63 435.42 C 1054.42 436.45 1053.25 441.07 1053.44 444.00 C 1036.32 444.00 1019.20 444.00 1002.09 444.00 C 1002.22 441.03 1001.13 436.33 1005.06 435.42 C 1010.63 434.78 1016.28 434.94 1021.89 434.66 C 1021.92 385.90 1021.90 337.14 1021.90 288.38 C 1016.28 288.08 1010.62 288.24 1005.04 287.60 C 1001.13 286.68 1002.22 281.96 1002.09 279.02 Z" />
</g>
</svg>
