<?xml version="1.0" encoding="UTF-8" ?>
<!DOCTYPE svg PUBLIC "-//W3C//DTD SVG 1.1//EN" "http://www.w3.org/Graphics/SVG/1.1/DTD/svg11.dtd">
<svg width="1350pt" height="650pt" viewBox="0 0 1350 650" version="1.1" xmlns="http://www.w3.org/2000/svg">
<g id="#ffffffff">
<path fill="#ffffff" opacity="1.00" d=" M 735.31 517.49 C 742.62 514.82 751.36 520.25 752.07 528.01 C 753.30 535.15 747.25 542.46 739.98 542.53 C 733.35 543.07 727.04 537.48 726.63 530.87 C 725.93 525.07 729.82 519.31 735.31 517.49 Z" />
<path fill="#ffffff" opacity="1.00" d=" M 739.27 560.34 C 746.49 560.03 752.88 566.85 752.18 574.03 C 751.86 580.68 745.70 586.44 739.00 586.01 C 731.86 586.05 725.78 579.10 726.61 572.04 C 727.02 565.67 732.85 560.21 739.27 560.34 Z" />
</g>
<g id="#b2e0f9ff">
<path fill="#b2e0f9" opacity="1.00" d=" M 663.38 8.46 C 678.71 8.56 694.05 8.17 709.37 8.65 C 709.24 23.84 709.40 39.03 709.29 54.22 C 693.96 54.15 678.62 54.51 663.31 54.03 C 663.44 38.84 663.30 23.65 663.38 8.46 Z" />
<path fill="#b2e0f9" opacity="1.00" d=" M 716.43 8.46 C 731.76 8.55 747.10 8.19 762.42 8.64 C 762.29 23.83 762.45 39.03 762.34 54.22 C 747.02 54.16 731.68 54.48 716.37 54.06 C 716.46 38.86 716.34 23.66 716.43 8.46 Z" />
<path fill="#b2e0f9" opacity="1.00" d=" M 769.47 8.46 C 784.73 8.52 800.00 8.26 815.26 8.59 C 815.18 23.80 815.29 39.01 815.20 54.22 C 800.01 54.32 784.83 54.17 769.64 54.29 C 769.21 39.03 769.56 23.74 769.47 8.46 Z" />
<path fill="#b2e0f9" opacity="1.00" d=" M 663.34 63.07 C 678.66 62.92 693.98 63.02 709.29 63.01 C 709.35 78.34 709.34 93.66 709.30 108.98 C 693.98 108.99 678.66 109.06 663.35 108.94 C 663.37 93.65 663.38 78.36 663.34 63.07 Z" />
<path fill="#b2e0f9" opacity="1.00" d=" M 716.38 63.07 C 731.70 62.91 747.02 63.03 762.34 63.01 C 762.40 78.34 762.39 93.67 762.35 109.00 C 760.14 109.00 757.94 108.99 755.75 108.99 C 756.09 102.33 756.48 95.66 756.72 88.99 C 757.08 83.45 753.88 78.56 750.88 74.19 C 747.07 69.08 740.80 64.52 734.10 66.09 C 728.04 67.39 724.55 73.39 722.85 78.89 C 720.29 88.59 718.21 98.41 716.37 108.27 C 716.42 93.20 716.42 78.14 716.38 63.07 Z" />
<path fill="#b2e0f9" opacity="1.00" d=" M 769.43 63.08 C 784.68 62.91 799.94 63.02 815.20 63.02 C 815.25 78.34 815.25 93.66 815.20 108.98 C 799.93 108.94 784.66 109.16 769.40 108.87 C 769.51 93.61 769.45 78.34 769.43 63.08 Z" />
<path fill="#b2e0f9" opacity="1.00" d=" M 663.34 118.06 C 678.66 117.93 693.98 118.01 709.30 118.02 C 709.41 129.82 709.21 141.63 709.40 153.43 C 709.06 156.95 708.62 160.45 708.23 163.96 C 693.26 164.00 678.29 164.08 663.33 163.92 C 663.39 148.64 663.37 133.35 663.34 118.06 Z" />
<path fill="#b2e0f9" opacity="1.00" d=" M 755.18 118.01 C 757.57 118.00 759.95 118.00 762.35 118.00 C 762.39 133.33 762.40 148.66 762.34 163.99 C 758.82 164.02 755.31 164.02 751.80 163.98 C 752.92 148.66 754.25 133.35 755.18 118.01 Z" />
<path fill="#b2e0f9" opacity="1.00" d=" M 769.42 118.08 C 784.68 117.91 799.94 118.02 815.21 118.02 C 815.25 133.34 815.25 148.66 815.20 163.98 C 799.94 163.97 784.68 164.10 769.42 163.92 C 769.47 148.64 769.47 133.36 769.42 118.08 Z" />
<path fill="#b2e0f9" opacity="1.00" d=" M 576.55 445.78 C 580.45 445.74 584.36 445.73 588.27 445.74 C 632.45 445.75 676.62 445.74 720.80 445.75 C 729.00 445.77 737.21 445.72 745.42 445.77 C 745.46 460.35 745.57 474.92 745.37 489.49 C 689.13 489.49 632.89 489.50 576.65 489.49 C 576.34 474.93 576.55 460.35 576.55 445.78 Z" />
</g>
<g id="#f6b2a2ff">
<path fill="#f6b2a2" opacity="1.00" d=" M 722.85 78.89 C 724.55 73.39 728.04 67.39 734.10 66.09 C 740.80 64.52 747.07 69.08 750.88 74.19 C 753.88 78.56 757.08 83.45 756.72 88.99 C 756.48 95.66 756.09 102.33 755.75 108.99 C 755.57 112.00 755.38 115.00 755.18 118.01 C 754.25 133.35 752.92 148.66 751.80 163.98 C 751.63 166.91 751.93 169.84 752.15 172.76 C 753.17 188.14 753.49 203.58 753.37 218.99 C 753.03 235.22 752.29 251.47 750.93 267.64 C 750.22 270.74 749.42 273.84 749.07 277.01 C 747.57 289.63 746.02 302.25 745.16 314.93 C 744.73 325.15 743.77 335.45 745.44 345.61 C 745.82 347.61 746.68 349.47 747.51 351.32 C 749.22 326.10 749.32 300.78 751.04 275.56 C 762.35 288.02 770.02 303.69 773.70 320.07 C 775.99 330.83 776.80 342.19 773.85 352.90 C 770.65 365.00 765.09 376.32 759.28 387.35 C 748.04 407.81 734.82 427.11 720.80 445.75 C 676.62 445.74 632.45 445.75 588.27 445.74 C 569.56 409.76 560.27 369.37 558.43 328.99 C 556.83 296.21 560.40 263.38 566.99 231.28 C 587.35 230.90 607.67 229.41 628.02 228.68 C 650.86 227.28 673.77 226.84 696.59 225.15 C 697.17 225.16 698.32 225.18 698.90 225.20 C 698.92 223.05 698.93 220.91 699.04 218.77 C 700.72 203.28 704.13 188.04 707.07 172.75 C 707.61 169.85 707.88 166.90 708.23 163.96 C 708.62 160.45 709.06 156.95 709.40 153.43 C 711.50 138.34 713.61 123.25 716.37 108.27 C 718.21 98.41 720.29 88.59 722.85 78.89 Z" />
</g>
<g id="#ea5045ff">
<path fill="#ea5045" opacity="1.00" d=" M 663.23 181.94 C 663.36 178.87 663.38 175.81 663.38 172.74 C 668.24 172.77 673.10 172.67 677.96 172.84 C 672.36 174.52 666.82 177.13 663.23 181.94 Z" />
<path fill="#ea5045" opacity="1.00" d=" M 684.97 172.83 C 692.33 172.66 699.70 172.78 707.07 172.75 C 704.13 188.04 700.72 203.28 699.04 218.77 C 698.64 218.88 697.83 219.10 697.42 219.21 C 698.46 211.83 699.40 204.43 700.62 197.08 C 701.67 191.47 700.71 185.38 697.39 180.67 C 694.57 176.38 689.57 174.50 684.97 172.83 Z" />
</g>
<g id="#e4a697ff">
<path fill="#e4a697" opacity="1.00" d=" M 677.96 172.84 C 680.24 172.31 682.68 172.30 684.97 172.83 C 689.57 174.50 694.57 176.38 697.39 180.67 C 700.71 185.38 701.67 191.47 700.62 197.08 C 699.40 204.43 698.46 211.83 697.42 219.21 C 697.10 221.18 696.84 223.16 696.59 225.15 C 673.77 226.84 650.86 227.28 628.02 228.68 C 607.67 229.41 587.35 230.90 566.99 231.28 C 568.44 220.82 572.56 210.52 579.72 202.64 C 585.26 196.84 595.58 194.40 602.18 199.78 C 606.81 203.48 607.29 209.81 607.48 215.29 C 609.24 207.58 611.28 199.94 613.45 192.34 C 614.49 188.02 616.50 183.87 619.73 180.77 C 627.09 173.11 640.25 171.56 648.73 178.24 C 654.11 182.54 656.34 189.94 655.41 196.62 C 654.64 202.17 653.48 207.67 653.26 213.28 C 654.44 207.57 655.88 201.93 657.49 196.33 C 658.93 191.38 659.84 186.02 663.23 181.94 C 666.82 177.13 672.36 174.52 677.96 172.84 Z" />
<path fill="#e4a697" opacity="1.00" d=" M 749.07 277.01 C 749.42 273.84 750.22 270.74 750.93 267.64 C 750.99 270.27 751.12 272.91 751.04 275.56 C 749.32 300.78 749.22 326.10 747.51 351.32 C 746.68 349.47 745.82 347.61 745.44 345.61 C 743.77 335.45 744.73 325.15 745.16 314.93 C 746.02 302.25 747.57 289.63 749.07 277.01 Z" />
</g>
<g id="#f9b342ff">
<path fill="#f9b342" opacity="1.00" d=" M 752.15 172.76 C 755.55 172.74 758.96 172.74 762.37 172.75 C 762.38 188.17 762.37 203.58 762.37 219.00 C 759.36 219.00 756.36 219.00 753.37 218.99 C 753.49 203.58 753.17 188.14 752.15 172.76 Z" />
</g>
<g id="#58b079ff">
<path fill="#58b079" opacity="1.00" d=" M 769.43 218.97 C 769.48 203.56 769.42 188.16 769.46 172.75 C 784.72 172.75 799.97 172.74 815.23 172.75 C 815.25 188.17 815.24 203.58 815.24 219.00 C 799.97 218.99 784.70 219.04 769.43 218.97 Z" />
</g>
<g id="#fcf1eeff">
<path fill="#fcf1ee" opacity="1.00" d=" M 697.42 219.21 C 697.83 219.10 698.64 218.88 699.04 218.77 C 698.93 220.91 698.92 223.05 698.90 225.20 C 698.32 225.18 697.17 225.16 696.59 225.15 C 696.84 223.16 697.10 221.18 697.42 219.21 Z" />
</g>
<g id="#364b9bff">
<path fill="#364b9b" opacity="1.00" d=" M 576.65 489.49 C 632.89 489.50 689.13 489.49 745.37 489.49 C 752.02 489.50 758.68 489.49 765.34 489.50 C 765.34 540.34 765.34 591.17 765.34 642.00 C 696.24 642.00 627.15 642.00 558.05 642.00 C 558.05 591.16 558.05 540.33 558.05 489.50 C 564.25 489.49 570.45 489.50 576.65 489.49 M 735.31 517.49 C 729.82 519.31 725.93 525.07 726.63 530.87 C 727.04 537.48 733.35 543.07 739.98 542.53 C 747.25 542.46 753.30 535.15 752.07 528.01 C 751.36 520.25 742.62 514.82 735.31 517.49 M 739.27 560.34 C 732.85 560.21 727.02 565.67 726.61 572.04 C 725.78 579.10 731.86 586.05 739.00 586.01 C 745.70 586.44 751.86 580.68 752.18 574.03 C 752.88 566.85 746.49 560.03 739.27 560.34 Z" />
</g>
</svg>
